#!OML:ASF H:\Martial Arts Walks\Project 1\Capture day 1\Session 1\male.ASF
:FULLY-SPECIFIED
:DEGREES
700
root -1.11972 14.0379 4.1022 13.277 -23.004 -17.0747
lowerback 9.13461 3.79416 9.53555
upperback -2.46223 6.44214 3.39415
thorax -7.11749 2.79828 -2.65485
lowerneck -2.28171 0.868502 -1.73258
upperneck 4.74141 1.02129 4.29623
head 1.84837 0.573708 1.68016
rclavicle -6.5748e-014 -2.18663e-014
rhumerus -50.3118 19.9064 -83.4557
rradius 97.052
rwrist 10.034
rhand -17.2478 -35.5531
rfingers 7.12502
rthumb 8.99621 -65.3412
lclavicle -6.5748e-014 -2.18663e-014
lhumerus -8.31704 -15.1804 79.6273
lradius 94.8474
lwrist 26.9892
lhand -32.0711 24.6403
lfingers 7.12502
lthumb -5.31735 54.5536
rfemur 5.01193 -5.59755 20.6557
rtibia 40.9134
rfoot -31.6938 -28.7026
rtoes -35.515
lfemur -67.566 25.0992 -4.23084
ltibia 73.6788
lfoot -9.16305 -0.120966
ltoes 4.49954
701
root -1.12397 14.0352 4.10896 13.1926 -22.9902 -16.9767
lowerback 9.15033 3.78359 9.48144
upperback -2.43501 6.419 3.36122
thorax -7.10072 2.7903 -2.65761
lowerneck -2.3866 0.886268 -1.79178
upperneck 4.8917 1.03948 4.37782
head 1.91542 0.585774 1.72086
rclavicle 9.40251e-014 2.78299e-015
rhumerus -50.304 19.8096 -83.4336
rradius 96.9745
rwrist 9.98427
rhand -17.2158 -35.5772
rfingers 7.12502
rthumb 9.02709 -65.3641
lclavicle 9.40251e-014 2.78299e-015
lhumerus -8.40544 -15.2291 79.6183
lradius 94.7824
lwrist 27.2783
lhand -32.141 24.6485
lfingers 7.12502
lthumb -5.38485 54.56
rfemur 5.09551 -5.5956 20.5684
rtibia 40.9396
rfoot -31.6739 -28.74
rtoes -35.6318
lfemur -67.5565 25.1307 -4.3525
ltibia 73.7447
lfoot -9.29828 -0.159638
ltoes 5.1578
702
root -1.12761 14.0272 4.11573 13.1551 -22.9026 -16.8973
lowerback 9.12444 3.75493 9.47032
upperback -2.44476 6.37491 3.32782
thorax -7.09819 2.7686 -2.67947
lowerneck -2.36291 0.872935 -1.75469
upperneck 4.98373 1.01757 4.36211
head 1.94183 0.575589 1.7097
rclavicle 1.23246e-014 -1.51076e-014
rhumerus -50.3837 19.7319 -83.4498
rradius 96.9272
rwrist 9.8812
rhand -17.3706 -35.3392
rfingers 7.12502
rthumb 8.8777 -65.1324
lclavicle 1.23246e-014 -1.51076e-014
lhumerus -8.56059 -15.3155 79.6177
lradius 94.7535
lwrist 27.5502
lhand -32.2368 24.6855
lfingers 7.12502
lthumb -5.47734 54.5947
rfemur 5.14129 -5.656 20.5127
rtibia 40.9737
rfoot -31.8057 -28.7062
rtoes -35.6111
lfemur -67.6166 25.1039 -4.47661
ltibia 73.8217
lfoot -9.26196 -0.176736
ltoes 3.91999
703
root -1.13052 14.0234 4.12521 13.0959 -22.7857 -16.7658
lowerback 9.05898 3.7081 9.44168
upperback -2.44333 6.29794 3.28801
thorax -7.0652 2.73347 -2.69084
lowerneck -2.28848 0.871058 -1.77052
upperneck 5.0163 1.01241 4.39433
head 1.93928 0.572866 1.72239
rclavicle 5.4964e-014 -2.42517e-014
rhumerus -50.3842 19.7124 -83.4517
rradius 96.833
rwrist 9.86161
rhand -17.3613 -35.3542
rfingers 7.12502
rthumb 8.88675 -65.1471
lclavicle 5.4964e-014 -2.42517e-014
lhumerus -8.65832 -15.3208 79.6002
lradius 94.6423
lwrist 27.5441
lhand -32.1607 24.7693
lfingers 7.12502
lthumb -5.40393 54.6804
rfemur 5.20026 -5.79023 20.3851
rtibia 41.0061
rfoot -31.9083 -28.6313
rtoes -35.6699
lfemur -67.6889 24.9933 -4.6275
ltibia 73.8865
lfoot -9.26416 -0.198942
ltoes 3.93216
704
root -1.1335 14.0167 4.13365 13.0854 -22.7045 -16.7093
lowerback 8.9963 3.68389 9.46272
upperback -2.45022 6.25903 3.26437
thorax -7.03598 2.71454 -2.71736
lowerneck -2.33478 0.863246 -1.77796
upperneck 5.16882 0.996962 4.40596
head 1.99784 0.566931 1.72987
rclavicle 2.73329e-014 2.8625e-014
rhumerus -50.3717 19.6947 -83.4625
rradius 96.7311
rwrist 9.84491
rhand -17.367 -35.5809
rfingers 7.12502
rthumb 8.8812 -65.374
lclavicle 2.73329e-014 2.8625e-014
lhumerus -8.78748 -15.3055 79.6216
lradius 94.5487
lwrist 27.4569
lhand -32.0065 24.7348
lfingers 7.12502
lthumb -5.255 54.6496
rfemur 5.22104 -5.86845 20.3355
rtibia 41.0486
rfoot -31.9012 -28.6919
rtoes -35.8293
lfemur -67.7728 24.937 -4.69954
ltibia 73.9709
lfoot -9.27564 -0.229891
ltoes 3.89309
